<?xml version="1.0" standalone="no"?>
<!DOCTYPE svg PUBLIC "-//W3C//DTD SVG 20010904//EN"
 "http://www.w3.org/TR/2001/REC-SVG-20010904/DTD/svg10.dtd">
<svg version="1.0" xmlns="http://www.w3.org/2000/svg"
 width="75.000000pt" height="75.000000pt" viewBox="0 0 75.000000 75.000000"
 preserveAspectRatio="xMidYMid meet">
<metadata>
Created by potrace 1.14, written by Peter Selinger 2001-2017
</metadata>
<g transform="translate(0.000000,75.000000) scale(0.100000,-0.100000)"
fill="#000000" stroke="none">
<path d="M297 733 c-37 -19 -55 -68 -50 -136 4 -43 1 -63 -10 -75 -23 -27 -67
-119 -67 -142 0 -22 52 -60 82 -60 23 0 30 -15 30 -63 -1 -23 6 -69 14 -102
l16 -60 -32 -28 c-35 -31 -32 -47 8 -47 42 0 65 34 67 100 2 50 5 55 25 55 19
0 23 -6 26 -40 3 -22 4 -51 4 -64 0 -26 33 -64 59 -68 20 -3 41 15 41 35 0 8
-3 12 -7 9 -3 -4 -12 -2 -20 4 -15 13 -19 134 -4 143 9 6 -3 88 -15 108 -5 7
2 9 20 4 18 -4 26 -2 27 6 1 7 3 29 5 48 13 112 12 152 -7 171 -11 11 -19 25
-19 33 0 8 -4 18 -10 21 -5 3 -10 21 -10 38 0 35 -25 80 -58 103 -28 20 -85
23 -115 7z m-19 -353 c10 -28 10 -29 -9 -17 -10 6 -19 20 -19 29 0 28 17 21
28 -12z"/>
</g>
</svg>
